<svg width="867" height="873" viewBox="0 0 867 873" fill="none" xmlns="http://www.w3.org/2000/svg">
<path d="M433.5 0L452.986 33H414.014L433.5 0Z" fill="url(#paint0_linear_1_70)"/>
<path d="M433.5 873L414.014 840L452.986 840L433.5 873Z" fill="url(#paint1_linear_1_70)"/>
<line x1="33" y1="437" x2="-1.31134e-07" y2="437" stroke="#626262" stroke-width="3"/>
<line x1="864" y1="437" x2="831" y2="437" stroke="#626262" stroke-width="3"/>
<line x1="867" y1="437" x2="834" y2="437" stroke="#626262" stroke-width="3"/>
<line x1="535.708" y1="48.2584" x2="544.249" y2="16.3829" stroke="#B0B0B0" stroke-width="3"/>
<line x1="535.708" y1="48.2584" x2="544.249" y2="16.3829" stroke="#B0B0B0" stroke-width="3"/>
<line x1="535.708" y1="48.2584" x2="544.249" y2="16.3829" stroke="#B0B0B0" stroke-width="3"/>
<line x1="319.853" y1="853.841" x2="328.394" y2="821.965" stroke="#B0B0B0" stroke-width="3"/>
<line x1="319.853" y1="853.841" x2="328.394" y2="821.965" stroke="#B0B0B0" stroke-width="3"/>
<line x1="319.853" y1="853.841" x2="328.394" y2="821.965" stroke="#B0B0B0" stroke-width="3"/>
<line x1="328.394" y1="49.0349" x2="319.853" y2="17.1593" stroke="#B0B0B0" stroke-width="3"/>
<line x1="328.394" y1="49.0349" x2="319.853" y2="17.1593" stroke="#B0B0B0" stroke-width="3"/>
<line x1="328.394" y1="49.0349" x2="319.853" y2="17.1593" stroke="#B0B0B0" stroke-width="3"/>
<line x1="544.249" y1="854.617" x2="535.708" y2="822.742" stroke="#B0B0B0" stroke-width="3"/>
<line x1="544.249" y1="854.617" x2="535.708" y2="822.742" stroke="#B0B0B0" stroke-width="3"/>
<line x1="544.249" y1="854.617" x2="535.708" y2="822.742" stroke="#B0B0B0" stroke-width="3"/>
<line x1="231.951" y1="89.4068" x2="215.451" y2="60.828" stroke="#B0B0B0" stroke-width="3"/>
<line x1="231.951" y1="89.4068" x2="215.451" y2="60.828" stroke="#B0B0B0" stroke-width="3"/>
<line x1="231.951" y1="89.4068" x2="215.451" y2="60.828" stroke="#B0B0B0" stroke-width="3"/>
<line x1="648.951" y1="811.672" x2="632.451" y2="783.093" stroke="#B0B0B0" stroke-width="3"/>
<line x1="648.951" y1="811.672" x2="632.451" y2="783.093" stroke="#B0B0B0" stroke-width="3"/>
<line x1="648.951" y1="811.672" x2="632.451" y2="783.093" stroke="#B0B0B0" stroke-width="3"/>
<line x1="149.243" y1="153.364" x2="125.909" y2="130.03" stroke="#B0B0B0" stroke-width="3"/>
<line x1="149.243" y1="153.364" x2="125.909" y2="130.03" stroke="#B0B0B0" stroke-width="3"/>
<line x1="149.243" y1="153.364" x2="125.909" y2="130.03" stroke="#B0B0B0" stroke-width="3"/>
<line x1="738.97" y1="743.091" x2="715.636" y2="719.757" stroke="#B0B0B0" stroke-width="3"/>
<line x1="738.97" y1="743.091" x2="715.636" y2="719.757" stroke="#B0B0B0" stroke-width="3"/>
<line x1="738.97" y1="743.091" x2="715.636" y2="719.757" stroke="#B0B0B0" stroke-width="3"/>
<line x1="85.9068" y1="236.549" x2="57.328" y2="220.049" stroke="#B0B0B0" stroke-width="3"/>
<line x1="85.9068" y1="236.549" x2="57.328" y2="220.049" stroke="#B0B0B0" stroke-width="3"/>
<line x1="85.9068" y1="236.549" x2="57.328" y2="220.049" stroke="#B0B0B0" stroke-width="3"/>
<line x1="808.172" y1="653.549" x2="779.593" y2="637.049" stroke="#B0B0B0" stroke-width="3"/>
<line x1="808.172" y1="653.549" x2="779.593" y2="637.049" stroke="#B0B0B0" stroke-width="3"/>
<line x1="808.172" y1="653.549" x2="779.593" y2="637.049" stroke="#B0B0B0" stroke-width="3"/>
<line x1="46.2585" y1="333.292" x2="14.3829" y2="324.751" stroke="#B0B0B0" stroke-width="3"/>
<line x1="851.841" y1="549.147" x2="819.965" y2="540.606" stroke="#B0B0B0" stroke-width="3"/>
<line x1="851.841" y1="549.147" x2="819.965" y2="540.606" stroke="#B0B0B0" stroke-width="3"/>
<line x1="851.841" y1="549.147" x2="819.965" y2="540.606" stroke="#B0B0B0" stroke-width="3"/>
<line x1="47.035" y1="540.606" x2="15.1594" y2="549.147" stroke="#B0B0B0" stroke-width="3"/>
<line x1="47.035" y1="540.606" x2="15.1594" y2="549.147" stroke="#B0B0B0" stroke-width="3"/>
<line x1="47.035" y1="540.606" x2="15.1594" y2="549.147" stroke="#B0B0B0" stroke-width="3"/>
<line x1="852.617" y1="324.751" x2="820.742" y2="333.292" stroke="#B0B0B0" stroke-width="3"/>
<line x1="852.617" y1="324.751" x2="820.742" y2="333.292" stroke="#B0B0B0" stroke-width="3"/>
<line x1="852.617" y1="324.751" x2="820.742" y2="333.292" stroke="#B0B0B0" stroke-width="3"/>
<line x1="87.4069" y1="637.049" x2="58.828" y2="653.549" stroke="#B0B0B0" stroke-width="3"/>
<line x1="87.4069" y1="637.049" x2="58.828" y2="653.549" stroke="#B0B0B0" stroke-width="3"/>
<line x1="87.4069" y1="637.049" x2="58.828" y2="653.549" stroke="#B0B0B0" stroke-width="3"/>
<line x1="809.672" y1="220.049" x2="781.093" y2="236.549" stroke="#B0B0B0" stroke-width="3"/>
<line x1="809.672" y1="220.049" x2="781.093" y2="236.549" stroke="#B0B0B0" stroke-width="3"/>
<line x1="809.672" y1="220.049" x2="781.093" y2="236.549" stroke="#B0B0B0" stroke-width="3"/>
<line x1="151.364" y1="719.757" x2="128.03" y2="743.091" stroke="#B0B0B0" stroke-width="3"/>
<line x1="151.364" y1="719.757" x2="128.03" y2="743.091" stroke="#B0B0B0" stroke-width="3"/>
<line x1="151.364" y1="719.757" x2="128.03" y2="743.091" stroke="#B0B0B0" stroke-width="3"/>
<line x1="741.091" y1="130.03" x2="717.757" y2="153.364" stroke="#B0B0B0" stroke-width="3"/>
<line x1="741.091" y1="130.03" x2="717.757" y2="153.364" stroke="#B0B0B0" stroke-width="3"/>
<line x1="741.091" y1="130.03" x2="717.757" y2="153.364" stroke="#B0B0B0" stroke-width="3"/>
<line x1="234.549" y1="783.093" x2="218.049" y2="811.672" stroke="#B0B0B0" stroke-width="3"/>
<line x1="234.549" y1="783.093" x2="218.049" y2="811.672" stroke="#B0B0B0" stroke-width="3"/>
<line x1="234.549" y1="783.093" x2="218.049" y2="811.672" stroke="#B0B0B0" stroke-width="3"/>
<line x1="651.549" y1="60.8279" x2="635.049" y2="89.4068" stroke="#B0B0B0" stroke-width="3"/>
<line x1="651.549" y1="60.8279" x2="635.049" y2="89.4068" stroke="#B0B0B0" stroke-width="3"/>
<line x1="651.549" y1="60.8279" x2="635.049" y2="89.4068" stroke="#B0B0B0" stroke-width="3"/>
<defs>
<linearGradient id="paint0_linear_1_70" x1="414.5" y1="9.75785e-07" x2="453.5" y2="33.5" gradientUnits="userSpaceOnUse">
<stop stop-color="#F7BA73"/>
<stop offset="1" stop-color="#EF4646"/>
</linearGradient>
<linearGradient id="paint1_linear_1_70" x1="414" y1="840" x2="453" y2="873" gradientUnits="userSpaceOnUse">
<stop stop-color="#7896FF"/>
<stop offset="1" stop-color="#3324DF"/>
</linearGradient>
</defs>
</svg>
