<svg width="871" height="882" viewBox="0 0 871 882" fill="none" xmlns="http://www.w3.org/2000/svg">
<g filter="url(#filter0_i_11_119)">
<rect width="871" height="882" rx="435.5" fill="url(#paint0_linear_11_119)"/>
</g>
<path d="M435.5 5L454.986 38H416.014L435.5 5Z" fill="url(#paint1_linear_11_119)"/>
<path d="M435.5 878L416.014 845L454.986 845L435.5 878Z" fill="url(#paint2_linear_11_119)"/>
<line x1="35" y1="442" x2="2" y2="442" stroke="#626262" stroke-width="3"/>
<line x1="866" y1="442" x2="833" y2="442" stroke="#626262" stroke-width="3"/>
<line x1="869" y1="442" x2="836" y2="442" stroke="#626262" stroke-width="3"/>
<line x1="537.708" y1="53.2584" x2="546.249" y2="21.3829" stroke="#B0B0B0" stroke-width="3"/>
<line x1="537.708" y1="53.2584" x2="546.249" y2="21.3829" stroke="#B0B0B0" stroke-width="3"/>
<line x1="537.708" y1="53.2584" x2="546.249" y2="21.3829" stroke="#B0B0B0" stroke-width="3"/>
<line x1="321.853" y1="858.841" x2="330.394" y2="826.965" stroke="#B0B0B0" stroke-width="3"/>
<line x1="321.853" y1="858.841" x2="330.394" y2="826.965" stroke="#B0B0B0" stroke-width="3"/>
<line x1="321.853" y1="858.841" x2="330.394" y2="826.965" stroke="#B0B0B0" stroke-width="3"/>
<line x1="330.394" y1="54.0349" x2="321.853" y2="22.1593" stroke="#B0B0B0" stroke-width="3"/>
<line x1="330.394" y1="54.0349" x2="321.853" y2="22.1593" stroke="#B0B0B0" stroke-width="3"/>
<line x1="330.394" y1="54.0349" x2="321.853" y2="22.1593" stroke="#B0B0B0" stroke-width="3"/>
<line x1="546.249" y1="859.617" x2="537.708" y2="827.742" stroke="#B0B0B0" stroke-width="3"/>
<line x1="546.249" y1="859.617" x2="537.708" y2="827.742" stroke="#B0B0B0" stroke-width="3"/>
<line x1="546.249" y1="859.617" x2="537.708" y2="827.742" stroke="#B0B0B0" stroke-width="3"/>
<line x1="233.951" y1="94.4068" x2="217.451" y2="65.828" stroke="#B0B0B0" stroke-width="3"/>
<line x1="233.951" y1="94.4068" x2="217.451" y2="65.828" stroke="#B0B0B0" stroke-width="3"/>
<line x1="233.951" y1="94.4068" x2="217.451" y2="65.828" stroke="#B0B0B0" stroke-width="3"/>
<line x1="650.951" y1="816.672" x2="634.451" y2="788.093" stroke="#B0B0B0" stroke-width="3"/>
<line x1="650.951" y1="816.672" x2="634.451" y2="788.093" stroke="#B0B0B0" stroke-width="3"/>
<line x1="650.951" y1="816.672" x2="634.451" y2="788.093" stroke="#B0B0B0" stroke-width="3"/>
<line x1="151.243" y1="158.364" x2="127.909" y2="135.03" stroke="#B0B0B0" stroke-width="3"/>
<line x1="151.243" y1="158.364" x2="127.909" y2="135.03" stroke="#B0B0B0" stroke-width="3"/>
<line x1="151.243" y1="158.364" x2="127.909" y2="135.03" stroke="#B0B0B0" stroke-width="3"/>
<line x1="740.97" y1="748.091" x2="717.636" y2="724.757" stroke="#B0B0B0" stroke-width="3"/>
<line x1="740.97" y1="748.091" x2="717.636" y2="724.757" stroke="#B0B0B0" stroke-width="3"/>
<line x1="740.97" y1="748.091" x2="717.636" y2="724.757" stroke="#B0B0B0" stroke-width="3"/>
<line x1="87.9068" y1="241.549" x2="59.328" y2="225.049" stroke="#B0B0B0" stroke-width="3"/>
<line x1="87.9068" y1="241.549" x2="59.328" y2="225.049" stroke="#B0B0B0" stroke-width="3"/>
<line x1="87.9068" y1="241.549" x2="59.328" y2="225.049" stroke="#B0B0B0" stroke-width="3"/>
<line x1="810.172" y1="658.549" x2="781.593" y2="642.049" stroke="#B0B0B0" stroke-width="3"/>
<line x1="810.172" y1="658.549" x2="781.593" y2="642.049" stroke="#B0B0B0" stroke-width="3"/>
<line x1="810.172" y1="658.549" x2="781.593" y2="642.049" stroke="#B0B0B0" stroke-width="3"/>
<line x1="48.2585" y1="338.292" x2="16.3829" y2="329.751" stroke="#B0B0B0" stroke-width="3"/>
<line x1="853.841" y1="554.147" x2="821.965" y2="545.606" stroke="#B0B0B0" stroke-width="3"/>
<line x1="853.841" y1="554.147" x2="821.965" y2="545.606" stroke="#B0B0B0" stroke-width="3"/>
<line x1="853.841" y1="554.147" x2="821.965" y2="545.606" stroke="#B0B0B0" stroke-width="3"/>
<line x1="49.035" y1="545.606" x2="17.1594" y2="554.147" stroke="#B0B0B0" stroke-width="3"/>
<line x1="49.035" y1="545.606" x2="17.1594" y2="554.147" stroke="#B0B0B0" stroke-width="3"/>
<line x1="49.035" y1="545.606" x2="17.1594" y2="554.147" stroke="#B0B0B0" stroke-width="3"/>
<line x1="854.617" y1="329.751" x2="822.742" y2="338.292" stroke="#B0B0B0" stroke-width="3"/>
<line x1="854.617" y1="329.751" x2="822.742" y2="338.292" stroke="#B0B0B0" stroke-width="3"/>
<line x1="854.617" y1="329.751" x2="822.742" y2="338.292" stroke="#B0B0B0" stroke-width="3"/>
<line x1="89.4069" y1="642.049" x2="60.828" y2="658.549" stroke="#B0B0B0" stroke-width="3"/>
<line x1="89.4069" y1="642.049" x2="60.828" y2="658.549" stroke="#B0B0B0" stroke-width="3"/>
<line x1="89.4069" y1="642.049" x2="60.828" y2="658.549" stroke="#B0B0B0" stroke-width="3"/>
<line x1="811.672" y1="225.049" x2="783.093" y2="241.549" stroke="#B0B0B0" stroke-width="3"/>
<line x1="811.672" y1="225.049" x2="783.093" y2="241.549" stroke="#B0B0B0" stroke-width="3"/>
<line x1="811.672" y1="225.049" x2="783.093" y2="241.549" stroke="#B0B0B0" stroke-width="3"/>
<line x1="153.364" y1="724.757" x2="130.03" y2="748.091" stroke="#B0B0B0" stroke-width="3"/>
<line x1="153.364" y1="724.757" x2="130.03" y2="748.091" stroke="#B0B0B0" stroke-width="3"/>
<line x1="153.364" y1="724.757" x2="130.03" y2="748.091" stroke="#B0B0B0" stroke-width="3"/>
<line x1="743.091" y1="135.03" x2="719.757" y2="158.364" stroke="#B0B0B0" stroke-width="3"/>
<line x1="743.091" y1="135.03" x2="719.757" y2="158.364" stroke="#B0B0B0" stroke-width="3"/>
<line x1="743.091" y1="135.03" x2="719.757" y2="158.364" stroke="#B0B0B0" stroke-width="3"/>
<line x1="236.549" y1="788.093" x2="220.049" y2="816.672" stroke="#B0B0B0" stroke-width="3"/>
<line x1="236.549" y1="788.093" x2="220.049" y2="816.672" stroke="#B0B0B0" stroke-width="3"/>
<line x1="236.549" y1="788.093" x2="220.049" y2="816.672" stroke="#B0B0B0" stroke-width="3"/>
<line x1="653.549" y1="65.8279" x2="637.049" y2="94.4068" stroke="#B0B0B0" stroke-width="3"/>
<line x1="653.549" y1="65.8279" x2="637.049" y2="94.4068" stroke="#B0B0B0" stroke-width="3"/>
<line x1="653.549" y1="65.8279" x2="637.049" y2="94.4068" stroke="#B0B0B0" stroke-width="3"/>
<defs>
<filter id="filter0_i_11_119" x="0" y="0" width="877" height="888" filterUnits="userSpaceOnUse" color-interpolation-filters="sRGB">
<feFlood flood-opacity="0" result="BackgroundImageFix"/>
<feBlend mode="normal" in="SourceGraphic" in2="BackgroundImageFix" result="shape"/>
<feColorMatrix in="SourceAlpha" type="matrix" values="0 0 0 0 0 0 0 0 0 0 0 0 0 0 0 0 0 0 127 0" result="hardAlpha"/>
<feMorphology radius="4" operator="erode" in="SourceAlpha" result="effect1_innerShadow_11_119"/>
<feOffset dx="6" dy="6"/>
<feGaussianBlur stdDeviation="12.5"/>
<feComposite in2="hardAlpha" operator="arithmetic" k2="-1" k3="1"/>
<feColorMatrix type="matrix" values="0 0 0 0 0 0 0 0 0 0 0 0 0 0 0 0 0 0 0.5 0"/>
<feBlend mode="normal" in2="shape" result="effect1_innerShadow_11_119"/>
</filter>
<linearGradient id="paint0_linear_11_119" x1="0" y1="0" x2="871" y2="882" gradientUnits="userSpaceOnUse">
<stop stop-color="#D8D8D8"/>
<stop offset="1" stop-color="white"/>
</linearGradient>
<linearGradient id="paint1_linear_11_119" x1="416.5" y1="5" x2="455.5" y2="38.5" gradientUnits="userSpaceOnUse">
<stop stop-color="#F7BA73"/>
<stop offset="1" stop-color="#EF4646"/>
</linearGradient>
<linearGradient id="paint2_linear_11_119" x1="416" y1="845" x2="455" y2="878" gradientUnits="userSpaceOnUse">
<stop stop-color="#7896FF"/>
<stop offset="1" stop-color="#3324DF"/>
</linearGradient>
</defs>
</svg>
